<?xml version="1.0" standalone="no"?>
<!DOCTYPE svg PUBLIC "-//W3C//DTD SVG 20010904//EN"
 "http://www.w3.org/TR/2001/REC-SVG-20010904/DTD/svg10.dtd">
<svg version="1.0" xmlns="http://www.w3.org/2000/svg"
 width="512.000000pt" height="512.000000pt" viewBox="0 0 512.000000 512.000000"
 preserveAspectRatio="xMidYMid meet">
<metadata>
Created by potrace 1.14, written by Peter Selinger 2001-2017
</metadata>
<g transform="translate(0.000000,512.000000) scale(0.100000,-0.100000)"
fill="#000000" stroke="none">
<path d="M2529 4986 c-2 -2 -46 -6 -97 -10 -284 -20 -564 -126 -802 -305 -374
-281 -606 -730 -613 -1188 -2 -119 10 -283 22 -316 9 -22 6 -25 -28 -35 -102
-31 -322 -156 -434 -246 -184 -149 -354 -371 -446 -584 -32 -72 -76 -199 -85
-244 -3 -13 -8 -34 -11 -48 -5 -26 -14 -68 -21 -110 -10 -52 -12 -328 -3 -395
22 -182 64 -326 139 -482 110 -232 270 -429 465 -573 33 -25 61 -48 63 -52 2
-5 8 -8 13 -8 5 0 32 -15 61 -34 130 -82 364 -171 507 -192 19 -2 37 -6 40 -8
12 -8 169 -19 261 -19 331 1 709 135 948 336 24 21 47 37 51 37 4 0 42 -27 84
-59 147 -113 322 -201 507 -254 180 -53 403 -72 585 -53 38 4 72 9 75 11 3 1
26 6 52 9 159 21 399 119 568 231 70 47 82 56 180 142 268 236 457 600 498
958 15 127 6 365 -17 478 -66 324 -216 600 -450 825 -86 83 -224 186 -301 226
-92 48 -169 85 -213 101 l-49 18 7 41 c56 354 -5 694 -186 1026 -33 60 -117
176 -179 248 -65 75 -104 111 -227 212 -67 56 -232 151 -338 195 -126 52 -305
98 -425 109 -105 10 -197 15 -201 12z"/>
</g>
</svg>
